<?xml version="1.0" encoding="UTF-8"?>
<!DOCTYPE svg PUBLIC "-//W3C//DTD SVG 1.1//EN" "http://www.w3.org/Graphics/SVG/1.1/DTD/svg11.dtd">
<!-- Creator: CorelDRAW 2017 -->
<svg xmlns="http://www.w3.org/2000/svg" xml:space="preserve" width="297mm" height="210mm" version="1.1" style="shape-rendering:geometricPrecision; text-rendering:geometricPrecision; image-rendering:optimizeQuality; fill-rule:evenodd; clip-rule:evenodd"
viewBox="0 0 29700 21000"
 xmlns:xlink="http://www.w3.org/1999/xlink">
 <defs>
  <style type="text/css">
   <![CDATA[
    .fil1 {fill:#FEFEFE}
    .fil0 {fill:#FEFEFE;fill-rule:nonzero}
   ]]>
  </style>
 </defs>
 <g id="Capa_x0020_1">
  <metadata id="CorelCorpID_0Corel-Layer"/>
  <path class="fil0" d="M3423 13047l871 0c281,0 491,23 629,69 139,41 252,128 341,259 84,130 126,341 126,633 0,198 -30,334 -89,407 -64,81 -186,142 -365,180 205,46 342,120 413,225 70,102 106,266 106,490l0 310c0,234 -26,402 -77,507 -54,113 -137,188 -247,224 -116,40 -349,60 -697,60l-1011 0 0 -3362zm871 578l0 748c25,-3 55,-4 89,-4 86,0 140,-21 162,-64 25,-41 38,-162 38,-361 0,-108 -10,-181 -29,-220 -22,-42 -48,-69 -77,-81 -26,-11 -87,-16 -183,-16zm0 1271l0 940c125,-6 204,-27 237,-60 35,-34 52,-119 52,-255l0 -315c0,-140 -16,-227 -46,-259 -30,-29 -111,-46 -243,-50z"/>
  <path id="1" class="fil0" d="M5769 13047l621 0c414,0 692,17 836,52 145,29 264,109 358,241 91,135 137,344 137,625 0,261 -33,438 -98,528 -66,91 -193,145 -381,162 176,48 292,106 349,174 62,77 99,142 111,195 8,39 13,98 16,179 3,80 4,188 4,324l0 884 -812 0 0 -1119c0,-181 -14,-291 -43,-330 -30,-43 -104,-64 -225,-64l0 1513 -871 0 0 -3362zm871 578l0 748c103,0 171,-14 208,-42 40,-32 60,-120 60,-264l0 -185c0,-108 -20,-179 -60,-213 -39,-30 -108,-45 -208,-45z"/>
  <path id="2" class="fil0" d="M10045 13047l0 2248c0,254 -9,433 -25,536 -13,100 -61,205 -145,315 -78,110 -185,193 -322,251 -140,57 -298,85 -473,85 -198,0 -375,-34 -531,-102 -152,-64 -267,-151 -343,-259 -79,-109 -125,-221 -137,-336 -13,-132 -21,-382 -21,-749l0 -1988 871 0 0 2520c0,151 10,245 29,283 13,42 43,62 94,62 58,0 93,-22 106,-67 18,-51 27,-158 27,-319l0 -2479 871 0zm-1126 -641l0 429 -429 0 0 -429 429 0zm727 0l0 429 -430 0 0 -429 430 0z"/>
  <path id="3" class="fil0" d="M12424 14514l-871 0 0 -583c0,-176 -10,-284 -29,-324 -23,-39 -64,-58 -125,-58 -74,0 -118,26 -135,77 -22,52 -33,163 -33,330l0 1561c0,162 11,268 33,319 17,50 59,75 128,75 68,0 112,-25 133,-75 19,-44 29,-160 29,-349l0 -422 871 0 0 127c0,346 -24,593 -73,741 -50,142 -159,270 -328,382 -164,111 -371,166 -621,166 -254,0 -465,-47 -633,-141 -167,-94 -277,-223 -330,-386 -54,-160 -81,-407 -81,-739l0 -983c0,-238 9,-419 25,-543 16,-116 65,-232 149,-349 81,-115 197,-204 345,-268 142,-62 309,-94 500,-94 257,0 470,50 638,149 170,99 279,222 328,369 54,144 81,376 81,697l0 319z"/>
  <polygon id="4" class="fil0" points="14821,13047 14321,14565 14868,16409 13968,16409 13611,14969 13611,16409 12739,16409 12739,13047 13611,13047 13611,14357 14001,13047 "/>
  <polygon id="5" class="fil0" points="15023,13052 16480,13052 16480,13723 15894,13723 15894,14361 16442,14361 16442,14998 15894,14998 15894,15738 16536,15738 16536,16409 15023,16409 "/>
  <path id="6" class="fil0" d="M16791 13047l621 0c414,0 692,17 836,52 145,29 264,109 358,241 91,135 137,344 137,625 0,261 -33,438 -98,528 -66,91 -193,145 -381,162 176,48 292,106 349,174 62,77 99,142 111,195 8,39 13,98 16,179 3,80 4,188 4,324l0 884 -812 0 0 -1119c0,-181 -14,-291 -43,-330 -30,-43 -104,-64 -225,-64l0 1513 -871 0 0 -3362zm871 578l0 748c103,0 171,-14 208,-42 40,-32 60,-120 60,-264l0 -185c0,-108 -20,-179 -60,-213 -39,-30 -108,-45 -208,-45z"/>
  <path class="fil1" d="M11020 3118l-822 935c-23,26 -45,55 -69,80l-67 76c-30,39 -17,208 -17,273 -4,385 -8,771 -13,1157 -1,106 -4,1128 -17,1142 -11,11 -18,7 -40,8 -150,6 -592,37 -660,33l22 -1801c-17,10 -4,1 -17,13 -2,2 -9,10 -12,14l-783 966c-32,39 -148,168 -153,210 -19,166 -17,557 -39,675l-784 84 -17 -802c-24,10 -79,66 -98,87l-472 455c-28,35 -4,278 -24,343 -156,23 -1372,183 -1416,208 1069,24 2138,7 3195,95 947,78 1956,225 2821,459 429,116 831,260 1229,414 195,76 395,152 588,234 52,22 41,15 139,-39l2530 -1361c-34,-23 -149,-25 -198,-32 -850,-114 -1829,-228 -2678,-272 -143,-7 -292,-10 -436,-21l10 -2286c-23,15 -77,76 -100,101 -18,19 -36,33 -54,52l-249 256c-132,140 -269,275 -401,414l-155 156c-19,22 -13,45 -14,83l-10 809c-1,119 6,283 -6,395l-730 13c1,-1029 12,-2061 13,-3090l3 -536z"/>
  <path class="fil1" d="M10039 11622c30,-13 266,-250 307,-289 103,-98 195,-188 297,-288 33,-32 363,-334 367,-365l24 -2177c2,-189 12,-390 6,-579 -24,-15 -94,-24 -124,-30 -35,-7 -82,-18 -121,-26 -99,-21 -687,-149 -735,-151l-22 3906z"/>
  <path class="fil1" d="M9332 7619c-24,-9 -958,-130 -980,-127l0 40c0,1024 -13,2081 -20,3103 34,-13 100,-72 130,-96l723 -571c37,-29 80,-60 117,-94l29 -2256z"/>
  <path class="fil1" d="M11735 9946c25,-10 139,-136 159,-158l774 -794c45,-46 40,-27 40,-113 1,-105 12,-403 3,-467 -130,-76 -873,-295 -968,-290l-9 1821z"/>
  <path class="fil1" d="M6970 8704c26,-11 43,-32 68,-56 122,-118 293,-261 412,-379 70,-70 68,-26 71,-159 4,-195 18,-494 12,-666l-560 -22 -2 1281z"/>
 </g>
</svg>
