<?xml version="1.0" encoding="UTF-8"?>
<!DOCTYPE svg PUBLIC "-//W3C//DTD SVG 1.1//EN" "http://www.w3.org/Graphics/SVG/1.1/DTD/svg11.dtd">
<!-- Creator: CorelDRAW 2017 -->
<svg xmlns="http://www.w3.org/2000/svg" xml:space="preserve" width="297mm" height="210mm" version="1.1" style="shape-rendering:geometricPrecision; text-rendering:geometricPrecision; image-rendering:optimizeQuality; fill-rule:evenodd; clip-rule:evenodd"
viewBox="0 0 29700 21000"
 xmlns:xlink="http://www.w3.org/1999/xlink">
 <defs>
  <style type="text/css">
   <![CDATA[
    .fil3 {fill:none}
    .fil1 {fill:#002244}
    .fil2 {fill:#BAAD93}
    .fil0 {fill:#002244;fill-rule:nonzero}
   ]]>
  </style>
 </defs>
 <g id="Capa_x0020_1">
  <metadata id="CorelCorpID_0Corel-Layer"/>
  <path class="fil0" d="M5214 12905l1096 0c354,0 618,29 791,86 175,52 317,160 429,326 106,163 159,429 159,796 0,250 -37,420 -112,512 -81,102 -234,178 -459,226 258,58 430,152 520,283 88,128 133,334 133,616l0 389c0,294 -32,506 -96,637 -68,143 -172,236 -311,282 -146,51 -438,76 -877,76l-1272 0 0 -4230zm1096 727l0 941c31,-4 69,-5 112,-5 109,0 176,-27 204,-81 31,-52 47,-204 47,-455 0,-136 -12,-228 -37,-277 -28,-53 -61,-86 -97,-102 -33,-13 -110,-21 -230,-21zm0 1599l0 1183c157,-8 257,-34 299,-76 44,-43 65,-150 65,-321l0 -397c0,-176 -20,-285 -58,-326 -38,-37 -140,-58 -306,-63z"/>
  <path id="1" class="fil0" d="M8165 12905l781 0c520,0 871,21 1052,65 182,37 332,137 450,303 115,170 172,432 172,786 0,329 -41,551 -124,664 -83,114 -242,182 -479,203 221,61 367,134 438,219 78,97 125,179 139,245 10,49 17,124 21,225 4,101 5,237 5,407l0 1112 -1021 0 0 -1407c0,-228 -18,-366 -54,-415 -37,-53 -131,-81 -283,-81l0 1904 -1096 0 0 -4230zm1096 727l0 941c129,0 216,-18 261,-53 51,-40 76,-151 76,-332l0 -233c0,-136 -25,-225 -76,-267 -49,-38 -135,-57 -261,-57z"/>
  <path id="2" class="fil0" d="M13544 12904l0 2828c0,320 -11,545 -31,674 -16,126 -77,258 -183,397 -98,138 -233,243 -405,316 -176,71 -374,107 -595,107 -250,0 -472,-43 -668,-128 -192,-81 -336,-190 -431,-326 -100,-137 -157,-278 -173,-422 -17,-166 -26,-480 -26,-943l0 -2502 1096 0 0 3170c0,190 12,308 37,356 16,53 54,78 118,78 73,0 117,-28 133,-84 22,-64 34,-199 34,-402l0 -3118 1096 0zm-1417 -807l0 540 -540 0 0 -540 540 0zm914 0l0 540 -541 0 0 -540 541 0z"/>
  <path id="3" class="fil0" d="M16538 14750l-1096 0 0 -733c0,-221 -12,-357 -37,-407 -29,-49 -80,-73 -158,-73 -93,0 -149,32 -170,96 -28,66 -42,205 -42,415l0 1963c0,204 14,338 42,402 21,63 74,94 160,94 86,0 141,-31 168,-94 24,-55 37,-201 37,-438l0 -530 1096 0 0 160c0,435 -30,746 -92,932 -62,179 -200,340 -413,480 -207,139 -467,209 -781,209 -320,0 -586,-59 -797,-177 -210,-119 -348,-281 -415,-486 -68,-201 -102,-512 -102,-930l0 -1237c0,-299 11,-528 31,-684 20,-146 82,-292 188,-438 102,-144 248,-257 434,-337 179,-78 389,-118 629,-118 324,0 591,62 802,188 214,125 351,280 413,464 68,181 102,473 102,877l0 402z"/>
  <polygon id="4" class="fil0" points="19553,12905 18924,14814 19613,17134 18480,17134 18031,15323 18031,17134 16935,17134 16935,12905 18031,12905 18031,14553 18522,12905 "/>
  <polygon id="5" class="fil0" points="19807,12910 21640,12910 21640,13755 20903,13755 20903,14557 21593,14557 21593,15359 20903,15359 20903,16290 21710,16290 21710,17134 19807,17134 "/>
  <path id="6" class="fil0" d="M22031 12905l781 0c520,0 871,21 1052,65 182,37 332,137 450,303 115,170 172,432 172,786 0,329 -41,551 -124,664 -83,114 -242,182 -479,203 221,61 367,134 438,219 78,97 125,179 139,245 10,49 17,124 21,225 4,101 5,237 5,407l0 1112 -1021 0 0 -1407c0,-228 -18,-366 -54,-415 -37,-53 -131,-81 -283,-81l0 1904 -1096 0 0 -4230zm1096 727l0 941c129,0 216,-18 261,-53 51,-40 76,-151 76,-332l0 -233c0,-136 -25,-225 -76,-267 -49,-38 -135,-57 -261,-57z"/>
  <path class="fil1" d="M14771 413l-1034 1177c-29,33 -57,69 -87,101l-84 96c-38,49 -21,261 -22,343 -4,484 -11,970 -17,1455 -2,134 -5,1419 -22,1437 -14,13 -23,9 -50,10 -188,7 -745,47 -830,42l28 -2265c-21,12 -5,1 -21,16 -3,2 -11,13 -15,17l-985 1215c-40,50 -187,212 -193,264 -23,209 -22,700 -49,849l-986 106 -22 -1009c-30,12 -99,83 -123,110l-593 573c-35,44 -5,350 -30,432 -196,29 -1726,231 -1782,262 1345,31 2690,9 4019,119 1192,98 2460,284 3549,577 540,146 1045,327 1547,521 246,95 497,192 740,294 65,27 51,19 175,-49l3183 -1712c-42,-28 -187,-32 -249,-40 -1069,-144 -2301,-287 -3369,-342 -180,-9 -368,-13 -548,-27l13 -2876c-29,19 -97,96 -126,127 -22,24 -45,42 -68,65l-313 321c-166,176 -338,346 -504,521l-195 197c-24,28 -17,56 -17,105l-13 1018c-2,149 7,356 -8,498l-918 16c1,-1295 15,-2592 17,-3888l3 -675z"/>
  <path class="fil2" d="M13537 11112c38,-17 335,-314 387,-364 129,-124 246,-236 373,-363 41,-41 456,-421 462,-459l30 -2739c3,-238 14,-491 8,-728 -30,-19 -119,-30 -156,-38 -44,-9 -103,-23 -152,-33 -125,-26 -864,-188 -925,-189l-27 4914z"/>
  <path class="fil2" d="M12648 6075c-30,-12 -1205,-164 -1232,-159l0 50c0,1288 -16,2617 -25,3904 43,-16 126,-91 163,-121l910 -718c47,-37 101,-75 147,-118l36 -2838z"/>
  <path class="fil2" d="M15672 9004c31,-13 174,-171 201,-198l974 -999c56,-59 50,-34 51,-142 1,-132 16,-507 3,-587 -164,-96 -1098,-371 -1218,-364l-11 2291z"/>
  <path class="fil2" d="M9677 7441c33,-14 55,-41 86,-71 153,-148 369,-328 518,-476 88,-88 86,-33 89,-200 4,-245 23,-622 16,-837l-705 -27 -3 1612z"/>
  <rect class="fil3" x="-73" y="-48" width="29845" height="21096"/>
 </g>
</svg>
