<?xml version="1.0" encoding="UTF-8"?>
<!DOCTYPE svg PUBLIC "-//W3C//DTD SVG 1.1//EN" "http://www.w3.org/Graphics/SVG/1.1/DTD/svg11.dtd">
<!-- Creator: CorelDRAW 2017 -->
<svg xmlns="http://www.w3.org/2000/svg" xml:space="preserve" width="297mm" height="210mm" version="1.1" style="shape-rendering:geometricPrecision; text-rendering:geometricPrecision; image-rendering:optimizeQuality; fill-rule:evenodd; clip-rule:evenodd"
viewBox="0 0 29700 21000"
 xmlns:xlink="http://www.w3.org/1999/xlink">
 <defs>
  <style type="text/css">
   <![CDATA[
    .fil1 {fill:#373435}
    .fil0 {fill:#373435;fill-rule:nonzero}
   ]]>
  </style>
 </defs>
 <g id="Capa_x0020_1">
  <metadata id="CorelCorpID_0Corel-Layer"/>
  <path class="fil0" d="M5313 12880l1085 0c350,0 611,28 783,86 173,51 314,159 424,323 105,161 157,424 157,788 0,247 -37,415 -111,507 -80,101 -232,176 -454,224 255,57 426,150 514,280 87,127 131,331 131,610l0 385c0,291 -32,501 -95,631 -67,141 -170,234 -308,279 -145,50 -434,75 -868,75l-1259 0 0 -4186zm1085 720l0 931c31,-4 68,-5 111,-5 108,0 175,-26 202,-80 31,-51 47,-202 47,-450 0,-135 -12,-226 -36,-274 -27,-52 -60,-86 -96,-101 -33,-13 -108,-20 -228,-20zm0 1582l0 1171c155,-8 254,-34 296,-75 43,-42 64,-148 64,-318l0 -393c0,-174 -19,-282 -57,-323 -38,-36 -138,-57 -303,-63z"/>
  <path id="1" class="fil0" d="M8233 12880l773 0c515,0 862,21 1041,64 180,36 328,136 445,300 114,168 170,428 170,778 0,325 -41,545 -123,657 -82,113 -240,180 -475,201 219,60 363,132 434,217 78,96 124,177 138,243 10,49 17,123 20,222 4,100 5,235 5,403l0 1101 -1011 0 0 -1393c0,-226 -18,-363 -54,-411 -37,-53 -130,-80 -280,-80l0 1884 -1085 0 0 -4186zm1085 720l0 931c128,0 213,-18 258,-52 50,-40 75,-149 75,-328l0 -230c0,-135 -25,-223 -75,-265 -49,-38 -134,-56 -258,-56z"/>
  <path id="2" class="fil0" d="M13558 12879l0 2799c0,317 -11,539 -31,667 -16,124 -76,255 -181,393 -97,137 -230,241 -401,313 -174,71 -370,106 -589,106 -247,0 -468,-42 -662,-127 -190,-80 -333,-188 -427,-323 -99,-136 -155,-275 -171,-418 -17,-164 -26,-475 -26,-933l0 -2476 1085 0 0 3138c0,188 12,305 36,352 16,52 54,78 116,78 72,0 116,-27 131,-83 22,-64 34,-197 34,-398l0 -3086 1085 0zm-1403 -798l0 535 -535 0 0 -535 535 0zm905 0l0 535 -535 0 0 -535 535 0z"/>
  <path id="3" class="fil0" d="M16521 14707l-1085 0 0 -726c0,-219 -12,-354 -36,-403 -28,-49 -79,-72 -156,-72 -92,0 -147,32 -168,95 -27,65 -41,203 -41,411l0 1943c0,202 14,334 41,398 21,63 73,94 159,94 85,0 139,-31 166,-94 24,-55 36,-199 36,-434l0 -525 1085 0 0 158c0,430 -30,738 -91,923 -62,177 -198,336 -408,475 -205,138 -462,206 -773,206 -317,0 -580,-58 -789,-176 -208,-117 -345,-278 -411,-481 -67,-199 -101,-506 -101,-920l0 -1224c0,-296 11,-522 31,-677 19,-145 81,-289 186,-434 101,-143 245,-254 430,-333 177,-78 385,-116 623,-116 320,0 585,62 794,186 212,123 348,277 408,460 67,179 101,468 101,868l0 398z"/>
  <polygon id="4" class="fil0" points="19505,12880 18882,14770 19564,17067 18443,17067 17998,15273 17998,17067 16913,17067 16913,12880 17998,12880 17998,14511 18484,12880 "/>
  <polygon id="5" class="fil0" points="19756,12885 21571,12885 21571,13722 20841,13722 20841,14516 21524,14516 21524,15309 20841,15309 20841,16230 21640,16230 21640,17067 19756,17067 "/>
  <path id="6" class="fil0" d="M21958 12880l773 0c515,0 862,21 1041,64 180,36 328,136 445,300 114,168 170,428 170,778 0,325 -41,545 -123,657 -82,113 -240,180 -475,201 219,60 363,132 434,217 78,96 124,177 138,243 10,49 17,123 20,222 4,100 5,235 5,403l0 1101 -1011 0 0 -1393c0,-226 -18,-363 -54,-411 -37,-53 -130,-80 -280,-80l0 1884 -1085 0 0 -4186zm1085 720l0 931c128,0 213,-18 258,-52 50,-40 75,-149 75,-328l0 -230c0,-135 -25,-223 -75,-265 -49,-38 -134,-56 -258,-56z"/>
  <path class="fil1" d="M14772 516l-1023 1165c-29,33 -57,68 -86,100l-84 95c-38,48 -21,259 -21,340 -4,479 -10,960 -17,1440 -2,132 -5,1404 -22,1422 -14,13 -22,9 -49,10 -186,7 -738,47 -821,42l27 -2242c-21,12 -5,1 -21,16 -3,2 -11,12 -15,17l-975 1202c-39,49 -185,209 -191,261 -23,206 -22,693 -48,840l-976 105 -21 -999c-30,12 -98,83 -122,109l-587 567c-35,43 -5,346 -30,428 -194,28 -1708,228 -1764,259 1332,30 2663,9 3978,118 1179,97 2435,281 3512,571 535,144 1035,324 1531,516 243,94 492,190 732,291 64,27 50,19 174,-48l3150 -1694c-42,-28 -185,-31 -246,-39 -1058,-142 -2278,-284 -3335,-339 -178,-9 -364,-12 -542,-26l13 -2847c-29,19 -96,95 -125,126 -22,23 -45,41 -67,64l-310 318c-164,174 -335,342 -499,516l-193 195c-24,28 -17,56 -17,104l-13 1007c-2,148 7,352 -8,492l-908 16c1,-1282 15,-2566 16,-3848l3 -668z"/>
  <path class="fil1" d="M13550 11106c37,-17 331,-311 383,-360 128,-122 243,-234 369,-359 41,-40 451,-416 457,-455l30 -2711c3,-235 14,-486 8,-721 -30,-19 -118,-30 -154,-37 -44,-9 -102,-23 -151,-33 -124,-26 -855,-186 -915,-188l-27 4863z"/>
  <path class="fil1" d="M12670 6120c-30,-12 -1193,-162 -1220,-158l0 49c0,1275 -16,2591 -24,3864 43,-16 124,-90 162,-119l901 -711c47,-37 100,-74 146,-116l36 -2809z"/>
  <path class="fil1" d="M15663 9019c31,-13 173,-170 199,-196l964 -989c56,-58 49,-34 50,-140 1,-131 16,-501 3,-581 -162,-95 -1087,-367 -1205,-361l-11 2267z"/>
  <path class="fil1" d="M9730 7472c33,-14 54,-40 85,-70 151,-147 365,-325 513,-471 87,-87 85,-33 88,-198 4,-243 23,-615 15,-829l-698 -27 -3 1595z"/>
 </g>
</svg>
