<?xml version="1.0" encoding="UTF-8"?>
<!DOCTYPE svg PUBLIC "-//W3C//DTD SVG 1.1//EN" "http://www.w3.org/Graphics/SVG/1.1/DTD/svg11.dtd">
<!-- Creator: CorelDRAW 2017 -->
<svg xmlns="http://www.w3.org/2000/svg" xml:space="preserve" width="297mm" height="210mm" version="1.1" style="shape-rendering:geometricPrecision; text-rendering:geometricPrecision; image-rendering:optimizeQuality; fill-rule:evenodd; clip-rule:evenodd"
viewBox="0 0 29700 21000"
 xmlns:xlink="http://www.w3.org/1999/xlink">
 <defs>
  <style type="text/css">
   <![CDATA[
    .fil2 {fill:#002244}
    .fil3 {fill:#BAAD93}
    .fil0 {fill:#C9C1B1}
    .fil1 {fill:#002244;fill-rule:nonzero}
   ]]>
  </style>
 </defs>
 <g id="Capa_x0020_1">
  <metadata id="CorelCorpID_0Corel-Layer"/>
  <rect class="fil0" x="1350" y="696" width="27000" height="19608"/>
  <path class="fil1" d="M8469 11251l745 0c241,0 420,19 538,59 119,35 216,109 292,222 72,111 108,292 108,541 0,170 -25,285 -76,348 -55,70 -159,121 -312,154 175,39 293,103 353,192 60,87 90,227 90,419l0 265c0,200 -22,344 -65,433 -46,97 -117,161 -212,192 -99,35 -298,52 -596,52l-865 0 0 -2876zm745 495l0 640c21,-2 47,-4 76,-4 74,0 120,-18 139,-55 21,-35 32,-139 32,-309 0,-93 -8,-155 -25,-188 -19,-36 -41,-59 -66,-70 -22,-9 -75,-14 -156,-14zm0 1087l0 804c107,-5 175,-23 203,-52 30,-29 44,-102 44,-218l0 -270c0,-119 -13,-194 -39,-222 -26,-25 -95,-39 -208,-43z"/>
  <path id="1" class="fil1" d="M10475 11251l531 0c354,0 592,15 715,44 124,25 225,93 306,206 78,116 117,294 117,535 0,224 -28,375 -84,452 -56,78 -165,124 -326,138 150,41 250,91 298,149 53,66 85,122 95,167 7,33 12,84 14,153 2,68 4,161 4,277l0 756 -695 0 0 -957c0,-155 -12,-249 -37,-282 -25,-36 -89,-55 -192,-55l0 1295 -745 0 0 -2876zm745 495l0 640c88,0 147,-12 178,-36 35,-27 52,-102 52,-225l0 -158c0,-93 -17,-153 -52,-182 -33,-26 -92,-39 -178,-39z"/>
  <path id="2" class="fil1" d="M14133 11251l0 1923c0,218 -7,370 -21,458 -11,85 -52,175 -124,270 -67,94 -158,165 -276,215 -119,48 -255,73 -405,73 -170,0 -321,-29 -455,-87 -130,-55 -228,-129 -293,-222 -68,-93 -107,-189 -118,-287 -12,-113 -18,-327 -18,-641l0 -1701 745 0 0 2156c0,129 8,210 25,242 11,36 37,53 80,53 50,0 79,-19 90,-57 15,-44 23,-135 23,-273l0 -2121 745 0zm-964 -548l0 367 -367 0 0 -367 367 0zm622 0l0 367 -368 0 0 -367 368 0z"/>
  <path id="3" class="fil1" d="M16169 12506l-745 0 0 -499c0,-150 -8,-243 -25,-277 -19,-33 -55,-50 -107,-50 -63,0 -101,22 -116,65 -19,45 -28,139 -28,282l0 1335c0,139 10,230 28,273 15,43 50,64 109,64 58,0 96,-21 114,-64 16,-38 25,-137 25,-298l0 -361 745 0 0 108c0,296 -21,507 -62,634 -42,122 -136,231 -281,327 -141,95 -318,142 -531,142 -218,0 -398,-40 -542,-121 -143,-81 -237,-191 -282,-330 -46,-137 -69,-348 -69,-632l0 -841c0,-204 7,-359 21,-465 13,-99 56,-199 128,-298 70,-98 168,-175 295,-229 122,-53 264,-80 428,-80 220,0 402,42 545,128 145,85 239,190 281,316 46,123 69,322 69,596l0 273z"/>
  <polygon id="4" class="fil1" points="18219,11251 17792,12549 18260,14127 17490,14127 17184,12895 17184,14127 16439,14127 16439,11251 17184,11251 17184,12372 17518,11251 "/>
  <polygon id="5" class="fil1" points="18392,11255 19639,11255 19639,11829 19138,11829 19138,12375 19607,12375 19607,12920 19138,12920 19138,13553 19687,13553 19687,14127 18392,14127 "/>
  <path id="6" class="fil1" d="M19905 11251l531 0c354,0 592,15 715,44 124,25 225,93 306,206 78,116 117,294 117,535 0,224 -28,375 -84,452 -56,78 -165,124 -326,138 150,41 250,91 298,149 53,66 85,122 95,167 7,33 12,84 14,153 2,68 4,161 4,277l0 756 -695 0 0 -957c0,-155 -12,-249 -37,-282 -25,-36 -89,-55 -192,-55l0 1295 -745 0 0 -2876zm745 495l0 640c88,0 147,-12 178,-36 35,-27 52,-102 52,-225l0 -158c0,-93 -17,-153 -52,-182 -33,-26 -92,-39 -178,-39z"/>
  <path class="fil2" d="M14968 2757l-703 800c-20,23 -39,47 -59,68l-57 65c-26,33 -14,178 -15,233 -3,329 -7,660 -12,990 -1,91 -3,965 -15,977 -10,9 -15,6 -34,7 -128,5 -507,32 -564,29l19 -1540c-15,8 -3,1 -15,11 -2,2 -8,9 -10,12l-670 826c-27,34 -127,144 -131,180 -16,142 -15,476 -33,577l-670 72 -15 -686c-20,8 -68,57 -84,75l-404 390c-24,30 -4,238 -21,294 -133,19 -1173,157 -1212,178 915,21 1829,6 2733,81 810,67 1673,193 2413,392 367,99 711,223 1052,354 167,65 338,130 503,200 44,19 35,13 119,-33l2164 -1164c-29,-19 -127,-21 -169,-27 -727,-98 -1565,-195 -2291,-233 -122,-6 -250,-9 -373,-18l9 -1956c-20,13 -66,65 -86,86 -15,16 -31,29 -46,44l-213 219c-113,119 -230,235 -343,354l-133 134c-17,19 -11,38 -12,71l-9 692c-1,102 5,242 -6,338l-624 11c1,-880 10,-1763 11,-2644l2 -459z"/>
  <path class="fil3" d="M14128 10032c26,-11 228,-214 263,-248 88,-84 167,-161 254,-247 28,-28 310,-286 314,-312l21 -1863c2,-162 10,-334 5,-495 -20,-13 -81,-20 -106,-26 -30,-6 -70,-16 -103,-23 -85,-18 -587,-128 -629,-129l-19 3341z"/>
  <path class="fil3" d="M13524 6607c-20,-8 -819,-111 -838,-108l0 34c0,876 -11,1780 -17,2655 29,-11 85,-62 111,-82l619 -489c32,-25 69,-51 100,-80l25 -1930z"/>
  <path class="fil3" d="M15580 8598c21,-9 119,-117 136,-135l662 -679c38,-40 34,-23 34,-96 1,-90 11,-344 2,-399 -111,-65 -747,-252 -828,-248l-8 1558z"/>
  <path class="fil3" d="M11503 7536c23,-9 37,-28 58,-48 104,-101 251,-223 352,-324 60,-60 58,-23 60,-136 3,-167 16,-423 11,-569l-479 -18 -2 1096z"/>
 </g>
</svg>
