<?xml version="1.0" encoding="UTF-8"?>
<!DOCTYPE svg PUBLIC "-//W3C//DTD SVG 1.1//EN" "http://www.w3.org/Graphics/SVG/1.1/DTD/svg11.dtd">
<!-- Creator: CorelDRAW 2017 -->
<svg xmlns="http://www.w3.org/2000/svg" xml:space="preserve" width="297mm" height="210mm" version="1.1" style="shape-rendering:geometricPrecision; text-rendering:geometricPrecision; image-rendering:optimizeQuality; fill-rule:evenodd; clip-rule:evenodd"
viewBox="0 0 29700 21000"
 xmlns:xlink="http://www.w3.org/1999/xlink">
 <defs>
  <style type="text/css">
   <![CDATA[
    .str0 {stroke:#373435;stroke-width:20}
    .fil0 {fill:#002244}
    .fil1 {fill:#BAAD93;fill-rule:nonzero}
   ]]>
  </style>
 </defs>
 <g id="Capa_x0020_1">
  <metadata id="CorelCorpID_0Corel-Layer"/>
  <rect class="fil0 str0" x="1350" y="696" width="27000" height="19608"/>
  <path class="fil1" d="M8433 7591l745 0c241,0 420,19 538,59 119,35 216,109 292,222 72,111 108,292 108,541 0,170 -25,285 -76,348 -55,70 -159,121 -312,154 175,39 293,103 353,192 60,87 90,227 90,419l0 265c0,200 -22,344 -65,433 -46,97 -117,161 -212,192 -99,35 -298,52 -596,52l-865 0 0 -2876zm745 495l0 640c21,-2 47,-4 76,-4 74,0 120,-18 139,-55 21,-35 32,-139 32,-309 0,-93 -8,-155 -25,-188 -19,-36 -41,-59 -66,-70 -22,-9 -75,-14 -156,-14zm0 1087l0 804c107,-5 175,-23 203,-52 30,-29 44,-102 44,-218l0 -270c0,-119 -13,-194 -39,-222 -26,-25 -95,-39 -208,-43z"/>
  <path id="1" class="fil1" d="M10439 7591l531 0c354,0 592,15 715,44 124,25 225,93 306,206 78,116 117,294 117,535 0,224 -28,375 -84,452 -56,78 -165,124 -326,138 150,41 250,91 298,149 53,66 85,122 95,167 7,33 12,84 14,153 2,68 4,161 4,277l0 756 -695 0 0 -957c0,-155 -12,-249 -37,-282 -25,-36 -89,-55 -192,-55l0 1295 -745 0 0 -2876zm745 495l0 640c88,0 147,-12 178,-36 35,-27 52,-102 52,-225l0 -158c0,-93 -17,-153 -52,-182 -33,-26 -92,-39 -178,-39z"/>
  <path id="2" class="fil1" d="M14097 7590l0 1923c0,218 -7,370 -21,458 -11,85 -52,175 -124,270 -67,94 -158,165 -276,215 -119,48 -255,73 -405,73 -170,0 -321,-29 -455,-87 -130,-55 -228,-129 -293,-222 -68,-93 -107,-189 -118,-287 -12,-113 -18,-327 -18,-641l0 -1701 745 0 0 2156c0,129 8,210 25,242 11,36 37,53 80,53 50,0 79,-19 90,-57 15,-44 23,-135 23,-273l0 -2121 745 0zm-964 -548l0 367 -367 0 0 -367 367 0zm622 0l0 367 -368 0 0 -367 368 0z"/>
  <path id="3" class="fil1" d="M16133 8846l-745 0 0 -499c0,-150 -8,-243 -25,-277 -19,-33 -55,-50 -107,-50 -63,0 -101,22 -116,65 -19,45 -28,139 -28,282l0 1335c0,139 10,230 28,273 15,43 50,64 109,64 58,0 96,-21 114,-64 16,-38 25,-137 25,-298l0 -361 745 0 0 108c0,296 -21,507 -62,634 -42,122 -136,231 -281,327 -141,95 -318,142 -531,142 -218,0 -398,-40 -542,-121 -143,-81 -237,-191 -282,-330 -46,-137 -69,-348 -69,-632l0 -841c0,-204 7,-359 21,-465 13,-99 56,-199 128,-298 70,-98 168,-175 295,-229 122,-53 264,-80 428,-80 220,0 402,42 545,128 145,85 239,190 281,316 46,123 69,322 69,596l0 273z"/>
  <polygon id="4" class="fil1" points="18183,7591 17755,8889 18224,10467 17453,10467 17148,9235 17148,10467 16403,10467 16403,7591 17148,7591 17148,8711 17482,7591 "/>
  <polygon id="5" class="fil1" points="18356,7594 19602,7594 19602,8169 19101,8169 19101,8714 19570,8714 19570,9260 19101,9260 19101,9892 19650,9892 19650,10467 18356,10467 "/>
  <path id="6" class="fil1" d="M19869 7591l531 0c354,0 592,15 715,44 124,25 225,93 306,206 78,116 117,294 117,535 0,224 -28,375 -84,452 -56,78 -165,124 -326,138 150,41 250,91 298,149 53,66 85,122 95,167 7,33 12,84 14,153 2,68 4,161 4,277l0 756 -695 0 0 -957c0,-155 -12,-249 -37,-282 -25,-36 -89,-55 -192,-55l0 1295 -745 0 0 -2876zm745 495l0 640c88,0 147,-12 178,-36 35,-27 52,-102 52,-225l0 -158c0,-93 -17,-153 -52,-182 -33,-26 -92,-39 -178,-39z"/>
 </g>
</svg>
