<?xml version="1.0" encoding="UTF-8"?>
<!DOCTYPE svg PUBLIC "-//W3C//DTD SVG 1.1//EN" "http://www.w3.org/Graphics/SVG/1.1/DTD/svg11.dtd">
<!-- Creator: CorelDRAW 2017 -->
<svg xmlns="http://www.w3.org/2000/svg" xml:space="preserve" width="297mm" height="210mm" version="1.1" style="shape-rendering:geometricPrecision; text-rendering:geometricPrecision; image-rendering:optimizeQuality; fill-rule:evenodd; clip-rule:evenodd"
viewBox="0 0 29700 21000"
 xmlns:xlink="http://www.w3.org/1999/xlink">
 <defs>
  <style type="text/css">
   <![CDATA[
    .fil1 {fill:none}
    .fil0 {fill:#002244;fill-rule:nonzero}
   ]]>
  </style>
 </defs>
 <g id="Capa_x0020_1">
  <metadata id="CorelCorpID_0Corel-Layer"/>
  <path class="fil0" d="M1350 5684l1536 0c496,0 865,40 1109,121 245,72 445,225 601,457 149,228 222,601 222,1115 0,350 -52,588 -157,718 -114,144 -328,250 -643,317 361,81 603,212 728,396 124,180 186,468 186,863l0 546c0,412 -45,709 -135,893 -95,200 -241,331 -436,395 -205,71 -614,106 -1229,106l-1782 0 0 -5926zm1536 1019l0 1319c44,-5 96,-7 157,-7 152,0 247,-37 286,-114 44,-72 66,-286 66,-637 0,-191 -17,-320 -51,-388 -39,-74 -85,-121 -136,-144 -46,-19 -154,-29 -322,-29zm0 2240l0 1657c220,-11 360,-47 418,-106 61,-60 91,-210 91,-450l0 -556c0,-246 -27,-400 -81,-457 -54,-51 -196,-81 -428,-89z"/>
  <path id="1" class="fil0" d="M5484 5684l1094 0c729,0 1220,30 1473,91 255,51 464,192 631,425 161,238 241,606 241,1101 0,461 -57,772 -174,930 -116,160 -340,255 -672,285 310,85 514,187 614,307 110,136 175,251 195,343 14,69 24,174 29,315 5,141 7,332 7,571l0 1558 -1431 0 0 -1972c0,-320 -25,-513 -76,-582 -52,-75 -184,-114 -396,-114l0 2667 -1536 0 0 -5926zm1536 1019l0 1319c181,0 302,-25 366,-74 71,-56 106,-211 106,-464l0 -326c0,-191 -35,-316 -106,-375 -69,-54 -190,-80 -366,-80z"/>
  <path id="2" class="fil0" d="M13021 5683l0 3962c0,448 -15,763 -44,944 -22,176 -107,361 -256,556 -137,194 -326,341 -568,443 -246,100 -524,150 -834,150 -350,0 -662,-60 -936,-180 -268,-114 -471,-266 -604,-457 -140,-192 -220,-390 -242,-592 -24,-232 -36,-673 -36,-1321l0 -3505 1536 0 0 4441c0,266 17,432 51,498 22,74 76,110 165,110 102,0 164,-39 186,-117 31,-90 47,-278 47,-563l0 -4369 1536 0zm-1985 -1130l0 757 -757 0 0 -757 757 0zm1281 0l0 757 -758 0 0 -757 758 0z"/>
  <path id="3" class="fil0" d="M17215 8270l-1536 0 0 -1028c0,-310 -17,-501 -51,-571 -40,-69 -112,-102 -221,-102 -130,0 -209,45 -238,135 -39,92 -59,287 -59,582l0 2751c0,286 20,473 59,563 30,89 104,132 225,132 120,0 197,-44 235,-132 34,-77 51,-282 51,-614l0 -743 1536 0 0 224c0,609 -42,1045 -129,1306 -87,251 -280,476 -578,673 -290,195 -654,292 -1094,292 -448,0 -820,-82 -1116,-248 -295,-166 -488,-393 -582,-680 -95,-282 -142,-717 -142,-1302l0 -1733c0,-420 15,-739 44,-958 27,-205 115,-410 263,-614 144,-202 347,-360 608,-472 251,-110 544,-165 882,-165 453,0 828,87 1124,263 300,175 492,392 578,651 95,253 142,663 142,1229l0 563z"/>
  <polygon id="4" class="fil0" points="21439,5684 20557,8359 21523,11610 19936,11610 19306,9072 19306,11610 17771,11610 17771,5684 19306,5684 19306,7993 19994,5684 "/>
  <polygon id="5" class="fil0" points="21795,5692 24363,5692 24363,6875 23331,6875 23331,7999 24297,7999 24297,9123 23331,9123 23331,10426 24462,10426 24462,11610 21795,11610 "/>
  <path id="6" class="fil0" d="M24911 5684l1094 0c729,0 1220,30 1473,91 255,51 464,192 631,425 161,238 241,606 241,1101 0,461 -57,772 -174,930 -116,160 -340,255 -672,285 310,85 514,187 614,307 110,136 175,251 195,343 14,69 24,174 29,315 5,141 7,332 7,571l0 1558 -1431 0 0 -1972c0,-320 -25,-513 -76,-582 -52,-75 -184,-114 -396,-114l0 2667 -1536 0 0 -5926zm1536 1019l0 1319c181,0 302,-25 366,-74 71,-56 106,-211 106,-464l0 -326c0,-191 -35,-316 -106,-375 -69,-54 -190,-80 -366,-80z"/>
  <rect class="fil1" x="-73" y="-48" width="29845" height="21096"/>
 </g>
</svg>
