<?xml version="1.0" encoding="UTF-8"?>
<!DOCTYPE svg PUBLIC "-//W3C//DTD SVG 1.1//EN" "http://www.w3.org/Graphics/SVG/1.1/DTD/svg11.dtd">
<!-- Creator: CorelDRAW 2017 -->
<svg xmlns="http://www.w3.org/2000/svg" xml:space="preserve" width="297mm" height="210mm" version="1.1" style="shape-rendering:geometricPrecision; text-rendering:geometricPrecision; image-rendering:optimizeQuality; fill-rule:evenodd; clip-rule:evenodd"
viewBox="0 0 29700 21000"
 xmlns:xlink="http://www.w3.org/1999/xlink">
 <defs>
  <style type="text/css">
   <![CDATA[
    .fil2 {fill:none}
    .fil0 {fill:#002244}
    .fil1 {fill:#BAAD93}
   ]]>
  </style>
 </defs>
 <g id="Capa_x0020_1">
  <metadata id="CorelCorpID_0Corel-Layer"/>
  <g id="_1514025890992">
   <path class="fil0" d="M15424 622l-1909 2173c-53,61 -105,127 -161,186l-156 176c-71,90 -38,483 -40,634 -8,894 -19,1791 -31,2687 -3,247 -9,2619 -40,2653 -26,25 -42,17 -92,19 -348,14 -1376,87 -1532,78l51 -4183c-40,23 -9,2 -40,30 -5,4 -21,23 -27,31l-1819 2243c-73,91 -345,391 -356,488 -43,385 -40,1293 -90,1567l-1820 195 -40 -1864c-55,23 -183,154 -228,203l-1096 1058c-65,80 -10,646 -56,798 -362,53 -3186,426 -3290,484 2484,57 4967,17 7421,220 2200,182 4543,524 6553,1066 997,269 1930,604 2856,962 454,175 917,354 1366,543 120,50 94,35 324,-90l5877 -3161c-78,-53 -346,-58 -460,-74 -1974,-265 -4249,-529 -6221,-632 -332,-17 -679,-23 -1012,-49l24 -5311c-54,36 -179,177 -233,235 -41,44 -84,77 -126,120l-578 594c-306,324 -624,638 -932,962l-360 363c-45,52 -31,104 -32,193l-24 1879c-3,276 13,657 -15,919l-1695 30c2,-2391 28,-4787 31,-7179l6 -1246z"/>
   <path class="fil1" d="M13144 20378c70,-31 618,-580 714,-673 238,-228 453,-436 689,-670 76,-75 842,-777 853,-848l56 -5057c5,-439 27,-906 14,-1344 -56,-35 -219,-55 -287,-70 -82,-17 -190,-42 -281,-61 -231,-48 -1595,-347 -1708,-350l-51 9073z"/>
   <path class="fil1" d="M11503 11077c-56,-22 -2225,-302 -2275,-294l0 92c0,2379 -30,4833 -46,7209 80,-29 232,-168 302,-223l1680 -1326c87,-68 187,-139 272,-217l67 -5240z"/>
   <path class="fil1" d="M17086 16484c57,-24 322,-316 370,-366l1799 -1845c104,-108 92,-63 93,-261 1,-244 29,-935 6,-1084 -302,-178 -2028,-685 -2248,-673l-21 4229z"/>
   <path class="fil1" d="M6016 13599c62,-26 101,-75 158,-130 282,-273 681,-606 956,-880 163,-162 159,-61 164,-370 8,-453 43,-1148 29,-1546l-1302 -50 -6 2976z"/>
  </g>
  <rect class="fil2" x="-73" y="-48" width="29845" height="21096"/>
 </g>
</svg>
